<svg enable-background="new 0 0 291.861 291.86" height="291.86" viewBox="0 0 291.861 291.86" width="291.861" xmlns="http://www.w3.org/2000/svg"><path d="m291.861 291.86h-291.861v-291.86h291.861v140.698l-14 12.791v72.093l14 17.442z" fill="#93117e"/><path d="m281.396 281.559h-271.094v-271.094h271.094v126.651l-15.101 13.968v74.458l15.101 19.32z" fill="#84187f"/><path d="m35.353 242.693 110.577-191.526 110.578 191.526z" fill="#e41270"/><path d="m51.862 232.479 93.987-162.789 93.986 162.789z" fill="#93117e"/><circle cx="145.93" cy="173.581" fill="#e2007a" r="23.256"/><circle cx="145.849" cy="173.581" fill="#803689" r="16.506"/><g fill="#b2007c"><path d="m291.861 0-10.465 10.465v126.651l10.465 3.582z"/><path d="m266.295 151.084 11.566 2.405v72.093l-11.566-.04z"/><path d="m291.861 243.024-10.465 1.838v36.697l10.465 10.301z"/><path d="m0 0 10.302 10.465v271.094l-10.302 10.301z"/></g><path d="m145.93 51.167-.081 18.523 93.986 162.789 16.673 10.214z" fill="#d40050"/><path d="m51.862 232.479-16.509 10.214h221.155l-16.673-10.214z" fill="#e52d87"/></svg>